<svg width="102" height="130" viewBox="0 0 102 130" fill="none" xmlns="http://www.w3.org/2000/svg">
<path d="M79.0751 49.227H21.6607V31.5471C21.6607 19.8867 31.3491 10.4005 43.258 10.4005H57.478C69.3866 10.4005 79.0751 19.8867 79.0751 31.5471V49.227ZM56.7105 91.3605V105.387C56.7105 107.675 54.6957 109.547 52.2335 109.547H51.1142C48.6517 109.547 46.637 107.675 46.637 105.387V91.5721C41.6203 89.7916 38.0557 85.2806 38.0557 79.9936C38.0557 73.149 44.0275 67.6002 51.3939 67.6002C58.7603 67.6002 64.732 73.149 64.732 79.9936C64.732 85.0817 61.4307 89.4516 56.7105 91.3605ZM89.9161 49.3764V31.5471C89.9161 14.1521 75.3642 0 57.478 0H43.258C25.3716 0 10.8199 14.1521 10.8199 31.5471V49.4388C4.68338 50.5055 0 55.5343 0 61.5335V117.693C0 124.462 5.96023 130 13.2449 130H87.8641C95.1486 130 101.109 124.462 101.109 117.693V61.5335C101.109 55.4131 96.2354 50.2998 89.9161 49.3764Z" fill="url(#paint0_linear_430_15)"/>
<defs>
<linearGradient id="paint0_linear_430_15" x1="50.5544" y1="130" x2="50.5544" y2="0" gradientUnits="userSpaceOnUse">
<stop offset="0.205" stop-color="#82CFFA"/>
<stop offset="0.595" stop-color="#F64F74"/>
<stop offset="0.855" stop-color="#FFBE98"/>
</linearGradient>
</defs>
</svg>
