<svg width="86" height="48" viewBox="0 0 86 48" fill="none" xmlns="http://www.w3.org/2000/svg">
<path d="M4.49727 0H0V23.1979H4.49727V0Z" fill="white"/>
<path fill-rule="evenodd" clip-rule="evenodd" d="M15.7111 23.5301C14.7873 23.5301 14.0273 23.4974 13.4309 23.4294C12.8345 23.364 12.1984 23.2307 11.5202 23.0319C10.7812 22.8105 10.1848 22.496 9.73346 22.0884C9.2821 21.6808 8.9009 21.0996 8.59453 20.3473C8.28582 19.6176 8.13147 18.7345 8.13147 17.6954V12.9577C8.13147 11.8959 8.28582 10.97 8.59453 10.1749C8.90323 9.37988 9.30315 8.76093 9.79661 8.31811C10.2269 7.94322 10.7976 7.62871 11.5062 7.37459C12.2148 7.12047 12.907 6.95945 13.5853 6.89403C14.3664 6.84874 15.075 6.82861 15.7111 6.82861C16.6559 6.82861 17.4113 6.85629 17.9749 6.91164C18.5386 6.967 19.1607 7.10538 19.8389 7.32679C20.5779 7.57085 21.1789 7.90045 21.642 8.32062C22.105 8.7408 22.5003 9.3371 22.8277 10.1095C23.1364 10.9046 23.2908 11.8557 23.2908 12.9602V17.7004C23.2908 18.6942 23.1411 19.5673 22.8441 20.3196C22.5471 21.0719 22.1612 21.6556 21.6888 22.0758C21.2772 22.4507 20.7182 22.7551 20.0096 22.9866C19.301 23.2181 18.6087 23.3665 17.9305 23.4345C17.3131 23.4974 16.5717 23.5301 15.7111 23.5301ZM15.7111 20.5133C16.553 20.5133 17.1892 20.4404 17.6218 20.297C18.0521 20.1536 18.3562 19.9271 18.5316 19.6176C18.707 19.3082 18.7935 18.8553 18.7935 18.259V12.1953C18.7935 11.3122 18.5783 10.6932 18.1457 10.3385C17.7154 9.98373 16.9038 9.8076 15.7111 9.8076C14.5207 9.8076 13.7092 9.98373 13.2766 10.3385C12.8462 10.6907 12.6287 11.3097 12.6287 12.1953V18.259C12.6287 18.8553 12.7153 19.3082 12.8907 19.6176C13.0661 19.9271 13.3678 20.1536 13.8004 20.297C14.2307 20.4429 14.8692 20.5133 15.7111 20.5133Z" fill="white"/>
<path fill-rule="evenodd" clip-rule="evenodd" d="M33.9459 23.5301C33.0221 23.5301 32.262 23.4974 31.6656 23.4294C31.0693 23.364 30.4332 23.2307 29.755 23.0319C29.0159 22.8105 28.4196 22.496 27.9682 22.0884C27.5168 21.6808 27.1356 21.0996 26.8293 20.3473C26.5206 19.6176 26.3662 18.7345 26.3662 17.6954V12.9577C26.3662 11.8959 26.5206 10.97 26.8293 10.1749C27.138 9.37988 27.5379 8.76093 28.0313 8.31811C28.4617 7.94322 29.0323 7.62871 29.7409 7.37459C30.4495 7.12047 31.1418 6.95945 31.82 6.89403C32.6011 6.84874 33.3097 6.82861 33.9459 6.82861C34.8907 6.82861 35.6461 6.85629 36.2097 6.91164C36.7733 6.967 37.3954 7.10538 38.0736 7.32679C38.8126 7.57085 39.4137 7.90045 39.8767 8.32062C40.3398 8.7408 40.735 9.3371 41.0624 10.1095C41.3711 10.9046 41.5255 11.8557 41.5255 12.9602V17.7004C41.5255 18.6942 41.3758 19.5673 41.0788 20.3196C40.7818 21.0719 40.3959 21.6556 39.9235 22.0758C39.5119 22.4507 38.953 22.7551 38.2443 22.9866C37.5357 23.2181 36.8435 23.3665 36.1653 23.4345C35.5478 23.4974 34.8088 23.5301 33.9459 23.5301ZM33.9459 20.5133C34.7878 20.5133 35.4239 20.4404 35.8566 20.297C36.2869 20.1536 36.5909 19.9271 36.7663 19.6176C36.9417 19.3082 37.0282 18.8553 37.0282 18.259V12.1953C37.0282 11.3122 36.8131 10.6932 36.3804 10.3385C35.9501 9.98373 35.1386 9.8076 33.9459 9.8076C32.7555 9.8076 31.9439 9.98373 31.5113 10.3385C31.081 10.6907 30.8635 11.3097 30.8635 12.1953V18.259C30.8635 18.8553 30.95 19.3082 31.1254 19.6176C31.3008 19.9271 31.6025 20.1536 32.0352 20.297C32.4678 20.4429 33.1039 20.5133 33.9459 20.5133Z" fill="white"/>
<path fill-rule="evenodd" clip-rule="evenodd" d="M49.7178 14.1856L54.6173 7.15826H59.76L54.5869 14.1503L60.1927 23.198H55.1084L49.7178 14.1856Z" fill="white"/>
<path fill-rule="evenodd" clip-rule="evenodd" d="M49.533 25.739V30.6981H53.6303V33.6796H49.533V41.2353C49.533 42.0077 49.5938 42.5889 49.7177 42.9764C49.8417 43.3639 50.0779 43.6381 50.4263 43.8042C50.7748 43.9702 51.3104 44.0533 52.0283 44.0533C52.316 44.0533 52.8492 43.9979 53.6303 43.8872V46.9039C52.6645 47.0146 51.8342 47.07 51.135 47.07C50.3749 47.07 49.7388 47.0373 49.2243 46.9693C48.7098 46.9039 48.1976 46.7706 47.6831 46.5718C47.1078 46.373 46.64 46.0963 46.2822 45.744C45.9221 45.3893 45.6297 44.9037 45.4052 44.2847C45.1597 43.6431 45.0357 42.9034 45.0357 42.0631V33.6821H42.0165V30.7006H45.0357V25.7415H49.533V25.739Z" fill="white"/>
<path d="M49.5332 0H45.0359V23.1979H49.5332V0Z" fill="white"/>
<path fill-rule="evenodd" clip-rule="evenodd" d="M18.7281 47.07C17.947 47.07 17.3319 47.0524 16.8806 47.0197C16.4292 46.987 15.8749 46.9266 15.2178 46.8385C14.5606 46.7505 14.0204 46.5945 13.5994 46.3756C13.1784 46.1542 12.7411 45.822 12.2897 45.3817C11.4478 44.6294 11.0269 43.3488 11.0269 41.5372V36.2007C11.0269 34.7414 11.3356 33.5262 11.9506 32.555C12.1775 32.2002 12.5096 31.8757 12.9516 31.5762C13.3936 31.2768 13.8403 31.0403 14.2916 30.8642C14.6612 30.7309 15.1546 30.6201 15.7697 30.5321C16.3848 30.444 16.9297 30.3887 17.4021 30.366H19.0345C20.1851 30.366 21.6935 30.5648 23.5621 30.9623V34.1451C21.448 33.6142 19.8249 33.35 18.6954 33.35C16.621 33.35 15.5849 34.1023 15.5849 35.6044V41.5045C15.5849 43.2054 16.7239 44.0558 19.0041 44.0558C20.1126 44.0558 21.7052 43.8117 23.7796 43.3261V46.5089C21.9134 46.8813 20.2272 47.07 18.7281 47.07Z" fill="white"/>
<path fill-rule="evenodd" clip-rule="evenodd" d="M30.5266 47.0699C29.1304 47.0699 28.0874 46.9315 27.3998 46.6548C26.7122 46.378 26.2281 45.8823 25.9522 45.1628C25.6739 44.4457 25.5359 43.3688 25.5359 41.9322C25.5359 40.6515 25.6856 39.6451 25.9826 38.9154C26.2796 38.1858 26.7637 37.6624 27.4302 37.3404C28.0967 37.0209 29.0158 36.8598 30.1875 36.8598H35.239V35.7654C35.239 35.081 35.1525 34.5727 34.9771 34.2406C34.8017 33.9085 34.4837 33.677 34.0229 33.5437C33.5599 33.4103 32.8676 33.3449 31.9439 33.3449C30.6716 33.3449 28.9246 33.4783 26.7076 33.7425V30.693C28.3306 30.4716 30.2296 30.3609 32.4069 30.3609C34.3176 30.3609 35.791 30.5144 36.827 30.8239C37.863 31.1333 38.6091 31.6642 39.0604 32.414C39.5118 33.1663 39.7387 34.2582 39.7387 35.6949V46.7302H35.3326V45.281C34.9841 45.9226 34.5117 46.3755 33.9154 46.6397C33.3213 46.9265 32.1918 47.0699 30.5266 47.0699ZM32.283 44.0532C33.1857 44.0532 33.8335 44.0205 34.2241 43.9525C34.5117 43.9073 34.7128 43.8418 34.8251 43.7538C34.9374 43.6657 35.0356 43.5223 35.1174 43.3235C35.1993 43.1701 35.2414 42.9361 35.2414 42.6266V39.5117H32.1614C31.4621 39.5117 30.971 39.5621 30.6833 39.6602C30.3957 39.7608 30.2015 39.9596 30.0986 40.2565C29.9957 40.5559 29.9443 41.0792 29.9443 41.8315C29.9443 42.5612 29.9957 43.0694 30.0986 43.3562C30.2015 43.6431 30.4027 43.8318 30.6997 43.9198C30.9944 44.0104 31.5229 44.0532 32.283 44.0532Z" fill="white"/>
<path fill-rule="evenodd" clip-rule="evenodd" d="M63.488 47.07C62.7069 47.07 62.0918 47.0524 61.6405 47.0197C61.1891 46.987 60.6348 46.9266 59.9776 46.8385C59.3205 46.7505 58.7802 46.5945 58.3593 46.3756C57.9383 46.1542 57.501 45.822 57.0496 45.3817C56.2077 44.6294 55.7867 43.3488 55.7867 41.5372V36.2007C55.7867 34.7414 56.0955 33.5262 56.7105 32.555C56.9374 32.2002 57.2695 31.8757 57.7115 31.5762C58.1535 31.2768 58.6002 31.0403 59.0515 30.8642C59.421 30.7309 59.9145 30.6201 60.5296 30.5321C61.1447 30.444 61.6896 30.3887 62.162 30.366H63.7944C64.945 30.366 66.4534 30.5648 68.322 30.9623V34.1451C66.2079 33.6142 64.5848 33.35 63.4553 33.35C61.3809 33.35 60.3448 34.1023 60.3448 35.6044V41.5045C60.3448 43.2054 61.4838 44.0558 63.764 44.0558C64.8725 44.0558 66.4651 43.8117 68.5395 43.3261V46.5089C66.6709 46.8813 64.9871 47.07 63.488 47.07Z" fill="white"/>
<path fill-rule="evenodd" clip-rule="evenodd" d="M71.6149 23.8295H76.1121V32.9426C76.3998 31.4178 77.9714 30.6555 80.8246 30.6555C82.7353 30.6555 84.0753 31.0253 84.8447 31.7651C85.6142 32.5048 86 33.6697 86 35.2623V47.0273H81.5028V35.8259C81.5028 35.207 81.4467 34.7491 81.3344 34.4497C81.2221 34.1503 81 33.9414 80.6725 33.8207C80.3428 33.6999 79.8213 33.6395 79.101 33.6395C78.2169 33.6395 77.5715 33.6949 77.1599 33.8056C76.7483 33.9163 76.4723 34.1201 76.3273 34.4195C76.1846 34.7189 76.1121 35.1869 76.1121 35.8285V47.0299H71.6149V23.8295Z" fill="white"/>
</svg>
