<svg width="84" height="84" viewBox="0 0 84 84" fill="none" xmlns="http://www.w3.org/2000/svg">
<path d="M62.9356 51.9145H57.9315V46.9101C57.9315 45.6449 56.9059 44.6195 55.6409 44.6195C54.3758 44.6195 53.3502 45.6449 53.3502 46.9101V51.9145H48.3461C47.081 51.9145 46.0554 52.9398 46.0554 54.2048C46.0554 55.4698 47.081 56.4955 48.3461 56.4955H53.3502V61.4998C53.3502 62.7646 54.3758 63.7905 55.6409 63.7905C56.9059 63.7905 57.9315 62.7646 57.9315 61.4998V56.4955H62.9356C64.2004 56.4955 65.2261 55.4698 65.2261 54.2048C65.2261 52.9398 64.2004 51.9145 62.9356 51.9145ZM55.6407 35.8974C45.5289 35.899 37.3348 44.093 37.3333 54.2048C37.3348 64.3166 45.5289 72.5108 55.6407 72.5123C65.7525 72.5108 73.9468 64.3168 73.9484 54.2048C73.9468 44.093 65.7525 35.899 55.6407 35.8974ZM65.3468 63.9107C62.8554 66.3983 59.4384 67.9299 55.6407 67.9311C51.8431 67.9299 48.4261 66.3983 45.9349 63.9107C43.4472 61.4194 41.9157 58.0025 41.9144 54.2048C41.9157 50.4072 43.4472 46.9902 45.9349 44.4989C48.4261 42.0113 51.8431 40.4797 55.6407 40.4785C59.4384 40.4797 62.8554 42.0113 65.3468 44.4989C67.8341 46.9902 69.366 50.4072 69.3671 54.2048C69.366 58.0025 67.8341 61.4194 65.3468 63.9107Z" fill="#819DCD" fill-opacity="0.53"/>
</svg>
