<svg width="84" height="84" viewBox="0 0 84 84" fill="none" xmlns="http://www.w3.org/2000/svg">
<g opacity="0.8">
<path d="M62.9357 51.9145H57.9315V46.9101C57.9315 45.6449 56.906 44.6195 55.6409 44.6195C54.3759 44.6195 53.3503 45.6449 53.3503 46.9101V51.9145H48.3462C47.081 51.9145 46.0555 52.9398 46.0555 54.2048C46.0555 55.4698 47.081 56.4955 48.3462 56.4955H53.3503V61.4998C53.3503 62.7646 54.3759 63.7905 55.6409 63.7905C56.906 63.7905 57.9315 62.7646 57.9315 61.4998V56.4955H62.9357C64.2005 56.4955 65.2262 55.4698 65.2262 54.2048C65.2262 52.9398 64.2005 51.9145 62.9357 51.9145ZM55.6408 35.8974C45.529 35.899 37.3348 44.093 37.3334 54.2048C37.3348 64.3166 45.529 72.5108 55.6408 72.5123C65.7525 72.5108 73.9469 64.3168 73.9485 54.2048C73.9469 44.093 65.7525 35.899 55.6408 35.8974ZM65.3469 63.9107C62.8555 66.3983 59.4385 67.9299 55.6408 67.9311C51.8431 67.9299 48.4262 66.3983 45.9349 63.9107C43.4472 61.4194 41.9158 58.0025 41.9145 54.2048C41.9158 50.4072 43.4472 46.9902 45.9349 44.4989C48.4262 42.0113 51.8431 40.4797 55.6408 40.4785C59.4385 40.4797 62.8555 42.0113 65.3469 44.4989C67.8342 46.9902 69.3661 50.4072 69.3671 54.2048C69.3661 58.0025 67.8342 61.4194 65.3469 63.9107Z" fill="#819DCD"/>
</g>
</svg>
