<svg width="64" height="64" viewBox="0 0 64 64" fill="none" xmlns="http://www.w3.org/2000/svg">
<g id="5981576_access_control_network_privacy_users_icon 1">
<g id="Group">
<g id="Group_2">
<path id="Vector" d="M51.441 34H50.559C46.391 34 43 37.392 43 41.56C43 42.727 43.275 43.895 43.797 44.938L44.073 45.491C44.299 44.634 45.073 44 46 44H47V43.854C47 42.718 47.642 41.679 48.658 41.171L49 41H51.104C51.319 42.185 51.979 44 54 44H55H56C56.927 44 57.699 44.634 57.926 45.489L58.203 44.936C58.725 43.895 59 42.727 59 41.56C59 37.392 55.609 34 51.441 34Z" fill="white"/>
</g>
<g id="Group_3">
<path id="Vector_2" d="M32 41C36.9706 41 41 36.9706 41 32C41 27.0294 36.9706 23 32 23C27.0294 23 23 27.0294 23 32C23 36.9706 27.0294 41 32 41Z" fill="white"/>
</g>
<g id="Group_4">
<path id="Vector_3" d="M9.938 20.008L10 20L10.871 17.387H10.901C10.045 16.85 9.401 16.006 9.141 15H8C6.895 15 6 14.105 6 13C6 11.895 6.895 11 8 11H9V10.854C9 9.718 9.642 8.679 10.658 8.171L11 8H13.104C13.319 9.185 13.979 11 16 11H17H18C19.105 11 20 11.895 20 13C20 14.105 19.105 15 18 15H16.859C16.599 16.006 15.955 16.85 15.099 17.387H15.13L16 20L16.062 20.008C17.967 20.246 19.663 21.073 21 22.28V9C21 4.589 17.411 1 13 1C8.589 1 5 4.589 5 9V22.273C6.337 21.068 8.035 20.246 9.938 20.008Z" fill="white"/>
</g>
<g id="Group_5">
<path id="Vector_4" d="M8 51C6.346 51 5 52.346 5 54C5 55.302 5.839 56.402 7 56.816V59H9V56.816C10.161 56.402 11 55.302 11 54C11 52.346 9.654 51 8 51ZM8 55C7.449 55 7 54.552 7 54C7 53.448 7.449 53 8 53C8.551 53 9 53.448 9 54C9 54.552 8.551 55 8 55Z" fill="white"/>
<path id="Vector_5" d="M13 44C13 41.243 10.757 39 8 39C5.243 39 3 41.243 3 44V49.111C1.765 50.373 1 52.098 1 54V56C1 59.859 4.14 63 8 63C11.86 63 15 59.859 15 56V54C15 52.098 14.235 50.373 13 49.111V44ZM8 41C9.654 41 11 42.346 11 44V47.685C10.089 47.251 9.075 47 8 47C6.925 47 5.911 47.251 5 47.685V44C5 42.346 6.346 41 8 41ZM13 56C13 58.757 10.757 61 8 61C5.243 61 3 58.757 3 56V54C3 51.243 5.243 49 8 49C10.757 49 13 51.243 13 54V56Z" fill="white"/>
<path id="Vector_6" d="M56 13C54.346 13 53 14.346 53 16C53 17.302 53.839 18.402 55 18.816V21H57V18.816C58.161 18.402 59 17.302 59 16C59 14.346 57.654 13 56 13ZM56 17C55.449 17 55 16.552 55 16C55 15.448 55.449 15 56 15C56.551 15 57 15.448 57 16C57 16.552 56.551 17 56 17Z" fill="white"/>
<path id="Vector_7" d="M61 11.111V6C61 3.243 58.757 1 56 1C53.243 1 51 3.243 51 6V11.111C49.765 12.374 49 14.099 49 16V18C49 21.859 52.14 25 56 25C59.86 25 63 21.859 63 18V16C63 14.098 62.235 12.373 61 11.111ZM56 3C57.654 3 59 4.346 59 6V9.685C58.089 9.251 57.075 9 56 9C54.925 9 53.911 9.251 53 9.685V6C53 4.346 54.346 3 56 3ZM61 18C61 20.757 58.757 23 56 23C53.243 23 51 20.757 51 18V16C51 13.243 53.243 11 56 11C58.757 11 61 13.243 61 16V18Z" fill="white"/>
<path id="Vector_8" d="M54.756 52.106L54.297 50.729C54.837 50.251 55.282 49.669 55.576 49H56C57.654 49 59 47.654 59 46C59 44.346 57.654 43 56 43V42H54V43C52.042 43 52.001 40.119 52 39.997L51 40H50C50 41.729 50.836 45 54 45V47C54 48.654 52.654 50 51 50C49.346 50 48 48.654 48 47V43.854C48 43.091 48.423 42.406 49.105 42.065L49.447 41.894L48.552 40.105L48.21 40.276C47.108 40.827 46.353 41.831 46.1 43H46C44.346 43 43 44.346 43 46C43 47.654 44.346 49 46 49H46.424C46.718 49.669 47.163 50.251 47.703 50.729L47.245 52.103C42.506 52.972 39 57.129 39 62V63H63V62C63 57.147 59.521 53.004 54.756 52.106ZM45 46C45 45.448 45.449 45 46 45V47C45.449 47 45 46.552 45 46ZM49.586 56L48.707 56.879L48.414 54.828L49.586 56ZM51 57.414L54.586 61H47.414L51 57.414ZM53.586 54.828L53.293 56.879L52.414 56L53.586 54.828ZM57 46C57 46.552 56.551 47 56 47V45C56.551 45 57 45.448 57 46ZM51 52C51.535 52 52.041 51.893 52.525 51.737L52.856 52.73L51 54.586L49.144 52.73L49.475 51.737C49.959 51.893 50.465 52 51 52ZM46.337 54.428L47.276 61H41.062C41.438 57.991 43.493 55.46 46.337 54.428ZM54.724 61L55.664 54.42C58.492 55.439 60.56 57.978 60.938 61H54.724Z" fill="white"/>
<path id="Vector_9" d="M19 32C19 39.168 24.832 45 32 45C39.168 45 45 39.168 45 32C45 24.832 39.168 19 32 19C28.43 19 25.193 20.448 22.841 22.785C21.338 20.868 19.21 19.563 16.756 19.105L16.297 17.729C16.837 17.251 17.282 16.669 17.576 16H18C19.654 16 21 14.654 21 13C21 11.346 19.654 10 18 10V9.00001H16V10C14.042 10 14.001 7.11901 14 6.99701L13 7.00001H12C12 8.72901 12.836 12 16 12V14C16 15.654 14.654 17 13 17C11.346 17 10 15.654 10 14V10.854C10 10.091 10.423 9.40601 11.105 9.06501L11.447 8.89401L10.552 7.10501L10.21 7.27601C9.109 7.82701 8.353 8.83101 8.1 10H8C6.346 10 5 11.346 5 13C5 14.654 6.346 16 8 16H8.424C8.718 16.669 9.163 17.251 9.703 17.729L9.245 19.103C4.506 19.972 1 24.129 1 29V30H19.17C19.069 30.654 19 31.318 19 32ZM7 13C7 12.448 7.449 12 8 12V14C7.449 14 7 13.552 7 13ZM22.214 27H26.431C26.206 28.237 26.067 29.581 26.022 31H21.051C21.18 29.57 21.588 28.221 22.214 27ZM32 21C33.075 21 34.22 22.527 35.009 25H28.991C29.78 22.527 30.925 21 32 21ZM35.519 27C35.763 28.209 35.927 29.553 35.979 31H28.021C28.073 29.553 28.238 28.209 28.481 27H35.519ZM42.949 31H37.978C37.932 29.581 37.794 28.237 37.569 27H41.786C42.412 28.221 42.82 29.57 42.949 31ZM32 43C30.925 43 29.78 41.473 28.991 39H35.009C34.22 41.473 33.075 43 32 43ZM28.481 37C28.237 35.791 28.073 34.447 28.021 33H35.979C35.927 34.447 35.762 35.791 35.519 37H28.481ZM21.051 33H26.022C26.068 34.419 26.206 35.763 26.431 37H22.214C21.588 35.779 21.18 34.43 21.051 33ZM37.978 33H42.949C42.819 34.43 42.412 35.779 41.785 37H37.568C37.794 35.763 37.933 34.419 37.978 33ZM23.521 39H26.895C27.263 40.295 27.733 41.422 28.286 42.341C26.412 41.666 24.768 40.507 23.521 39ZM35.714 42.341C36.267 41.422 36.737 40.295 37.105 39H40.479C39.232 40.507 37.588 41.666 35.714 42.341ZM40.479 25H37.105C36.737 23.705 36.267 22.578 35.714 21.659C37.588 22.334 39.232 23.493 40.479 25ZM28.286 21.659C27.733 22.578 27.263 23.705 26.895 25H23.521C24.768 23.493 26.412 22.334 28.286 21.659ZM19 13C19 13.552 18.551 14 18 14V12C18.551 12 19 12.448 19 13ZM13 19C13.535 19 14.041 18.893 14.525 18.737L14.988 20.125C14.922 21.168 14.06 22 13 22C11.94 22 11.078 21.168 11.013 20.124L11.476 18.737C11.959 18.893 12.465 19 13 19ZM3.062 28C3.475 24.696 5.911 21.968 9.195 21.169C9.698 22.802 11.204 24 13 24C14.8 24 16.308 22.798 16.808 21.159C18.719 21.611 20.374 22.739 21.511 24.351C20.706 25.451 20.065 26.677 19.635 28H3.062Z" fill="white"/>
<path id="Vector_10" d="M33 51.184V47H31V51.184C30.153 51.486 29.486 52.153 29.184 53H17V55H29.184C29.598 56.161 30.698 57 32 57C33.654 57 35 55.654 35 54C35 52.698 34.161 51.598 33 51.184ZM32 55C31.449 55 31 54.552 31 54C31 53.448 31.449 53 32 53C32.551 53 33 53.448 33 54C33 54.552 32.551 55 32 55Z" fill="white"/>
<path id="Vector_11" d="M31 12.816V17H33V12.816C33.847 12.514 34.514 11.847 34.816 11H47V9H34.816C34.402 7.839 33.302 7 32 7C30.346 7 29 8.346 29 10C29 11.302 29.839 12.402 31 12.816ZM32 9C32.551 9 33 9.448 33 10C33 10.552 32.551 11 32 11C31.449 11 31 10.552 31 10C31 9.448 31.449 9 32 9Z" fill="white"/>
</g>
</g>
</g>
</svg>
