<svg width="62" height="62" viewBox="0 0 62 62" fill="none" xmlns="http://www.w3.org/2000/svg">
<g id="7177678_data_vault_modeling_storage_logical_icon 1" clip-path="url(#clip0_1_42)">
<g id="Group">
<g id="Group_2">
<g id="Group_3">
<path id="Vector" d="M8 49C3.589 49 0 45.411 0 41C0 36.589 3.589 33 8 33C12.411 33 16 36.589 16 41C16 45.411 12.411 49 8 49Z" fill="white"/>
</g>
</g>
<g id="Group_4">
<path id="Vector_2" d="M8 49V58H30V24H8V33C8.692 33 9.359 33.097 10 33.263V26H28V56H26V55C26 53.346 24.654 52 23 52H15C13.346 52 12 53.346 12 55V56H10V48.737C9.359 48.903 8.692 49 8 49ZM14 55C14 54.448 14.448 54 15 54H23C23.552 54 24 54.448 24 55V56H14V55Z" fill="white"/>
<path id="Vector_3" d="M4 41C4 43.206 5.794 45 8 45C10.206 45 12 43.206 12 41C12 38.794 10.206 37 8 37C5.794 37 4 38.794 4 41ZM10 41C10 42.103 9.103 43 8 43C6.897 43 6 42.103 6 41C6 39.897 6.897 39 8 39C9.103 39 10 39.897 10 41Z" fill="white"/>
<path id="Vector_4" d="M62 8V0H52V3H40V7H36V10H34V0H8V16H20V20H7C5.346 20 4 21.346 4 23V34.082C4.619 33.722 5.29 33.447 6 33.263V23C6 22.448 6.448 22 7 22H31C31.552 22 32 22.448 32 23V59C32 59.552 31.552 60 31 60H7C6.448 60 6 59.552 6 59V48.737C5.29 48.553 4.619 48.277 4 47.918V59C4 60.654 5.346 62 7 62H31C32.654 62 34 60.654 34 59V23C34 21.346 32.654 20 31 20H22V16H34V12H36V15H40V19H36V27H40V32H36V40H40V44H48V48H40V56H58V48H50V44H58V40H62V32H58V28H62V12H58V8H62ZM32 14H10V2H32V14ZM56 54H42V50H56V54ZM54 2H60V6H54V2ZM38 9H44V13H38V9ZM38 21H44V25H38V21ZM38 34H44V38H38V34ZM60 38H54V34H60V38ZM56 32H52V40H56V42H42V40H46V32H42V27H46V24H52V28H56V32ZM60 26H54V14H60V26ZM56 12H52V22H46V19H42V15H46V7H42V5H52V8H56V12Z" fill="white"/>
<path id="Vector_5" d="M26 28H12V30H26V28Z" fill="white"/>
</g>
</g>
</g>
<defs>
<clipPath id="clip0_1_42">
<rect width="62" height="62" fill="white"/>
</clipPath>
</defs>
</svg>
